<svg xmlns="http://www.w3.org/2000/svg" viewBox="0 0 1200 900" preserveAspectRatio="xMidYMid slice">
<defs>
  <linearGradient id="bg4" x1="0" y1="0" x2="1" y2="1">
    <stop offset="0" stop-color="#0e0c0a"></stop>
    <stop offset="1" stop-color="#1c1915"></stop>
  </linearGradient>
</defs>
<rect width="1200" height="900" fill="url(#bg4)"></rect>

<rect x="0" y="0" width="1200" height="56" fill="#0a0807"></rect>
<circle cx="24" cy="28" r="6" fill="#8a3217"></circle>
<circle cx="44" cy="28" r="6" fill="#d4a24c"></circle>
<circle cx="64" cy="28" r="6" fill="#3f4a3a"></circle>
<text x="600" y="34" text-anchor="middle" font-family="monospace" font-size="12" fill="#d4a24c" letter-spacing="3">FUNDINGVX · v 4.2 · LEIPZIG</text>

<g font-family="monospace" font-size="13" fill="#e8e0ce">
  <text x="60" y="120" fill="#8a3217" letter-spacing="2" font-size="11">// PROGRAMME · 2026 Q2</text>
  <rect x="50" y="140" width="380" height="44" fill="#2a2620" stroke="#b8853a" stroke-width="1"></rect>
  <text x="68" y="160">ZIM · Zentrales Innovationsprogramm</text>
  <text x="68" y="176" fill="#d4a24c">Match: 94 %</text>
  <text x="380" y="176" fill="#d4a24c" text-anchor="end">550.000 €</text>

  <rect x="50" y="194" width="380" height="44" fill="#1c1915" stroke="#3a2d1c"></rect>
  <text x="68" y="214">Forschungs­zulage · § 7 FZulG</text>
  <text x="68" y="230" fill="#a08868">Match: 87 %</text>
  <text x="380" y="230" fill="#a08868" text-anchor="end">320.000 €</text>

  <rect x="50" y="248" width="380" height="44" fill="#1c1915" stroke="#3a2d1c"></rect>
  <text x="68" y="268">SAB · FuE-Verbundprojekte Sachsen</text>
  <text x="68" y="284" fill="#a08868">Match: 81 %</text>
  <text x="380" y="284" fill="#a08868" text-anchor="end">240.000 €</text>

  <rect x="50" y="302" width="380" height="44" fill="#1c1915" stroke="#3a2d1c"></rect>
  <text x="68" y="322">Horizon Europe · EIC Pathfinder</text>
  <text x="68" y="338" fill="#a08868">Match: 76 %</text>
  <text x="380" y="338" fill="#a08868" text-anchor="end">1.200.000 €</text>

  <rect x="50" y="356" width="380" height="44" fill="#1c1915" stroke="#3a2d1c"></rect>
  <text x="68" y="376">go-Inno · Innovationsgutschein</text>
  <text x="68" y="392" fill="#a08868">Match: 68 %</text>
  <text x="380" y="392" fill="#a08868" text-anchor="end">12.500 €</text>
</g>

<g font-family="monospace" fill="#e8e0ce">
  <text x="500" y="120" fill="#8a3217" letter-spacing="2" font-size="11">// SUMME · KUMULIERT</text>

  <text x="500" y="200" font-family="Archivo, sans-serif" font-weight="900" font-size="84" fill="#d4a24c" letter-spacing="-3">19,4</text>
  <text x="700" y="170" font-size="13" fill="#a08868" letter-spacing="2">MIO €</text>
  <text x="700" y="195" font-size="11" fill="#a08868" letter-spacing="2">PLATZIERT</text>
  <text x="500" y="235" font-size="12" fill="#a08868">// 67 Bewilligungen · 260+ Anträge · seit 2016</text>

  <line x1="500" y1="260" x2="1140" y2="260" stroke="#3a2d1c" stroke-width="1"></line>

  <text x="500" y="298" fill="#8a3217" letter-spacing="2" font-size="11">// ERFOLGSQUOTE NACH PROGRAMM</text>

  
  <g transform="translate(500,320)">
    <text x="0" y="20" font-size="12">ZIM</text>
    <rect x="100" y="8" width="380" height="14" fill="#2a2620"></rect>
    <rect x="100" y="8" width="312" height="14" fill="#b8853a"></rect>
    <text x="500" y="20" font-size="12" fill="#d4a24c">82 %</text>

    <text x="0" y="50" font-size="12">FZul</text>
    <rect x="100" y="38" width="380" height="14" fill="#2a2620"></rect>
    <rect x="100" y="38" width="380" height="14" fill="#b8853a"></rect>
    <text x="500" y="50" font-size="12" fill="#d4a24c">100 %</text>

    <text x="0" y="80" font-size="12">SAB</text>
    <rect x="100" y="68" width="380" height="14" fill="#2a2620"></rect>
    <rect x="100" y="68" width="270" height="14" fill="#b8853a"></rect>
    <text x="500" y="80" font-size="12" fill="#d4a24c">71 %</text>

    <text x="0" y="110" font-size="12">EIC</text>
    <rect x="100" y="98" width="380" height="14" fill="#2a2620"></rect>
    <rect x="100" y="98" width="142" height="14" fill="#b8853a"></rect>
    <text x="500" y="110" font-size="12" fill="#d4a24c">37 %</text>

    <text x="0" y="140" font-size="12">go-Inno</text>
    <rect x="100" y="128" width="380" height="14" fill="#2a2620"></rect>
    <rect x="100" y="128" width="358" height="14" fill="#b8853a"></rect>
    <text x="500" y="140" font-size="12" fill="#d4a24c">94 %</text>
  </g>
</g>

<g transform="translate(60,560)">
  <text x="0" y="0" font-family="monospace" font-size="11" fill="#8a3217" letter-spacing="2">// HISTORIE · BEWILLIGUNGEN PRO QUARTAL · 2016 → 2026</text>
  <line x1="0" y1="200" x2="1080" y2="200" stroke="#3a2d1c"></line>
  <rect x="0" y="150" width="20" height="50" fill="#8a6a3a" opacity="0.6"></rect><rect x="27" y="124.90476189336164" width="20" height="75.09523810663836" fill="#8a6a3a" opacity="0.61"></rect><rect x="54" y="101.01851890080779" width="20" height="98.98148109919221" fill="#8a6a3a" opacity="0.62"></rect><rect x="81" y="109.57534433457883" width="20" height="90.42465566542117" fill="#8a6a3a" opacity="0.63"></rect><rect x="108" y="146.55082948908665" width="20" height="53.44917051091336" fill="#8a6a3a" opacity="0.64"></rect><rect x="135" y="125.44517406172662" width="20" height="74.55482593827338" fill="#8a6a3a" opacity="0.65"></rect><rect x="162" y="108.98969593104886" width="20" height="91.01030406895114" fill="#8a6a3a" opacity="0.6599999999999999"></rect><rect x="189" y="101.22831711629672" width="20" height="98.77168288370328" fill="#8a6a3a" opacity="0.6699999999999999"></rect><rect x="216" y="125.81133534893749" width="20" height="74.18866465106251" fill="#8a6a3a" opacity="0.6799999999999999"></rect><rect x="243" y="168.8230269660955" width="20" height="31.17697303390448" fill="#8a6a3a" opacity="0.69"></rect><rect x="270" y="104.01093808968477" width="20" height="95.98906191031523" fill="#8a6a3a" opacity="0.7"></rect><rect x="297" y="100.82822362860998" width="20" height="99.17177637139002" fill="#8a6a3a" opacity="0.71"></rect><rect x="324" y="110.17807643382031" width="20" height="89.82192356617969" fill="#8a6a3a" opacity="0.72"></rect><rect x="351" y="147.66311463554536" width="20" height="52.336885364454645" fill="#8a6a3a" opacity="0.73"></rect><rect x="378" y="144.34646095236513" width="20" height="55.65353904763487" fill="#8a6a3a" opacity="0.74"></rect><rect x="405" y="88.42129680198309" width="20" height="111.57870319801691" fill="#8a6a3a" opacity="0.75"></rect><rect x="432" y="101.45755895940778" width="20" height="98.54244104059222" fill="#8a6a3a" opacity="0.76"></rect><rect x="459" y="126.73040214340757" width="20" height="73.26959785659243" fill="#8a6a3a" opacity="0.77"></rect><rect x="486" y="167.64638669452043" width="20" height="32.35361330547957" fill="#8a6a3a" opacity="0.78"></rect><rect x="513" y="123.13011664623792" width="20" height="76.86988335376208" fill="#8a6a3a" opacity="0.79"></rect><rect x="540" y="80.65748510135907" width="20" height="119.34251489864093" fill="#8a6a3a" opacity="0.8"></rect><rect x="567" y="70.79772181999459" width="20" height="129.2022781800054" fill="#8a6a3a" opacity="0.8099999999999999"></rect><rect x="594" y="108.78171502780071" width="20" height="91.21828497219929" fill="#8a6a3a" opacity="0.82"></rect><rect x="621" y="103.25500079711959" width="20" height="96.74499920288041" fill="#8a6a3a" opacity="0.83"></rect><rect x="648" y="67.8703076492948" width="20" height="132.1296923507052" fill="#8a6a3a" opacity="0.84"></rect><rect x="675" y="41.70617961722897" width="20" height="158.29382038277103" fill="#8a6a3a" opacity="0.85"></rect><rect x="702" y="87.66170243156012" width="20" height="112.33829756843988" fill="#8a6a3a" opacity="0.86"></rect><rect x="729" y="126.47041185352322" width="20" height="73.52958814647678" fill="#8a6a3a" opacity="0.87"></rect><rect x="756" y="82.2625465952307" width="20" height="117.7374534047693" fill="#8a6a3a" opacity="0.88"></rect><rect x="783" y="60.50635159148652" width="20" height="139.49364840851348" fill="#8a6a3a" opacity="0.8899999999999999"></rect><rect x="810" y="51.4341053024761" width="20" height="148.5658946975239" fill="#8a6a3a" opacity="0.8999999999999999"></rect><rect x="837" y="109.906314407059" width="20" height="90.093685592941" fill="#8a6a3a" opacity="0.9099999999999999"></rect><rect x="864" y="102.17110218149969" width="20" height="97.82889781850031" fill="#8a6a3a" opacity="0.9199999999999999"></rect><rect x="891" y="67.33688425262238" width="20" height="132.66311574737762" fill="#d4a24c" opacity="0.9299999999999999"></rect><rect x="918" y="61.97410879792952" width="20" height="138.02589120207048" fill="#d4a24c" opacity="0.94"></rect><rect x="945" y="68.6049729094413" width="20" height="131.3950270905587" fill="#d4a24c" opacity="0.95"></rect><rect x="972" y="125.29543492321676" width="20" height="74.70456507678324" fill="#d4a24c" opacity="0.96"></rect><rect x="999" y="81.40847322234306" width="20" height="118.59152677765694" fill="#d4a24c" opacity="0.97"></rect><rect x="1026" y="60.37486582855135" width="20" height="139.62513417144865" fill="#d4a24c" opacity="0.98"></rect><rect x="1053" y="72.08704695832336" width="20" height="127.91295304167664" fill="#d4a24c" opacity="0.99"></rect>
  <text x="0" y="225" font-family="monospace" font-size="10" fill="#a08868">2016</text>
  <text x="540" y="225" font-family="monospace" font-size="10" fill="#a08868" text-anchor="middle">2021</text>
  <text x="1080" y="225" font-family="monospace" font-size="10" fill="#a08868" text-anchor="end">2026 Q2</text>
</g>

<rect x="0" y="860" width="1200" height="40" fill="#0a0807"></rect>
<text x="20" y="884" font-family="monospace" font-size="11" fill="#a08868" letter-spacing="2">// ANGEMELDET · paulo@exventure.co · LEIPZIG</text>
<text x="1180" y="884" font-family="monospace" font-size="11" fill="#d4a24c" text-anchor="end" letter-spacing="2">SYNC · 14:32:08</text>
</svg>